<svg width="20" height="20" viewBox="0 0 20 20" fill="none" xmlns="http://www.w3.org/2000/svg">
<path fill-rule="evenodd" clip-rule="evenodd" d="M5.82387 4.07496C8.60351 3.8575 11.3959 3.8575 14.1755 4.07496L16.0422 4.22163C16.5478 4.26104 17.0256 4.46855 17.3996 4.81108C17.7735 5.1536 18.022 5.61144 18.1055 6.11163C18.5364 8.68663 18.5364 11.3141 18.1055 13.8883C18.0221 14.3883 17.7737 14.8461 17.3999 15.1886C17.0261 15.5311 16.5485 15.7387 16.043 15.7783L14.1764 15.9241C11.3965 16.1417 8.60379 16.1417 5.82387 15.9241L3.9572 15.7783C3.45163 15.7389 2.9738 15.5314 2.59986 15.1888C2.22591 14.8463 1.97738 14.3885 1.89387 13.8883C1.46376 11.3139 1.46376 8.68601 1.89387 6.11163C1.97735 5.61157 2.22575 5.15383 2.59953 4.81132C2.9733 4.4688 3.45095 4.26122 3.95637 4.22163L5.82304 4.07579L5.82387 4.07496ZM8.33304 12.0583V7.94163C8.33311 7.89745 8.34488 7.85407 8.36716 7.81592C8.38944 7.77777 8.42143 7.74621 8.45988 7.72445C8.49833 7.70268 8.54186 7.6915 8.58603 7.69203C8.63021 7.69255 8.67346 7.70478 8.71137 7.72746L12.1422 9.78579C12.1791 9.80803 12.2097 9.83943 12.2309 9.87696C12.2521 9.91449 12.2632 9.95686 12.2632 9.99996C12.2632 10.0431 12.2521 10.0854 12.2309 10.123C12.2097 10.1605 12.1791 10.1919 12.1422 10.2141L8.71137 12.2725C8.67346 12.2951 8.63021 12.3074 8.58603 12.3079C8.54186 12.3084 8.49833 12.2972 8.45988 12.2755C8.42143 12.2537 8.38944 12.2221 8.36716 12.184C8.34488 12.1458 8.33311 12.1025 8.33304 12.0583Z" fill="#00FFFF"/>
</svg>
