<svg width="16" height="16" viewBox="0 0 16 16" fill="none" xmlns="http://www.w3.org/2000/svg">
<path fill-rule="evenodd" clip-rule="evenodd" d="M10.483 14.6666V9.50325H12.2163L12.4757 7.49125H10.4823V6.20659C10.4823 5.62392 10.6443 5.22659 11.4803 5.22659H12.5457V3.42658C12.0297 3.37168 11.5112 3.34497 10.9923 3.34659C9.45634 3.34659 8.40501 4.28459 8.40501 6.00659V7.49125H6.66634V9.50325H8.40434V14.6666H2.06901C1.66234 14.6666 1.33301 14.3373 1.33301 13.9306V2.06925C1.33301 1.66259 1.66234 1.33325 2.06901 1.33325H13.9303C14.337 1.33325 14.6663 1.66259 14.6663 2.06925V13.9306C14.6663 14.3373 14.337 14.6666 13.9303 14.6666H10.483Z" fill="#00FFFF"/>
</svg>
