<svg width="19" height="19" viewBox="0 0 19 19" fill="none" xmlns="http://www.w3.org/2000/svg">
<path d="M15.8353 2.375H3.16469C2.95573 2.37655 2.75577 2.46025 2.60801 2.60801C2.46025 2.75577 2.37655 2.95573 2.375 3.16469V15.8353C2.37655 16.0443 2.46025 16.2442 2.60801 16.392C2.75577 16.5397 2.95573 16.6234 3.16469 16.625H9.98687V11.115H8.13438V8.95969H9.98687V7.37437C9.98687 5.53375 11.1091 4.53031 12.7597 4.53031C13.3119 4.53031 13.8641 4.53031 14.4163 4.61344V6.53125H13.2822C12.3856 6.53125 12.2134 6.95875 12.2134 7.58219V8.95375H14.3509L14.0719 11.1091H12.2134V16.625H15.8353C16.0443 16.6234 16.2442 16.5397 16.392 16.392C16.5397 16.2442 16.6234 16.0443 16.625 15.8353V3.16469C16.6234 2.95573 16.5397 2.75577 16.392 2.60801C16.2442 2.46025 16.0443 2.37655 15.8353 2.375Z" fill="#162D49"/>
</svg>
